HIERARCHY
ROOT Hips
{
	OFFSET 0.000000 0.000000 0.000000
	CHANNELS 6 Xposition Yposition Zposition Zrotation Yrotation Xrotation 
	JOINT LowerBack
	{
		OFFSET 0.000000 0.000000 0.000000
		CHANNELS 3 Zrotation Yrotation Xrotation
		JOINT Spine
		{
			OFFSET 0.028270 2.035590 -0.193380
			CHANNELS 3 Zrotation Yrotation Xrotation
			JOINT Spine1
			{
				OFFSET 0.056720 2.048850 -0.042750
				CHANNELS 3 Zrotation Yrotation Xrotation
				JOINT Neck
				{
					OFFSET 0.000000 0.000000 0.000000
					CHANNELS 3 Zrotation Yrotation Xrotation
					JOINT Neck1
					{
						OFFSET -0.054170 1.746240 0.172020
						CHANNELS 3 Zrotation Yrotation Xrotation
						JOINT Head
						{
							OFFSET 0.104070 1.761360 -0.123970
							CHANNELS 3 Zrotation Yrotation Xrotation
							End Site
							{
								OFFSET 0.000000 0.000000 0.000000
							}
						}
					}
				}
				JOINT LeftShoulder
				{
					OFFSET 0.000000 0.000000 0.000000
					CHANNELS 3 Zrotation Yrotation Xrotation
					JOINT LeftArm
					{
						OFFSET 3.362410 1.200890 -0.311210
						CHANNELS 3 Zrotation Yrotation Xrotation
						JOINT LeftForeArm
						{
							OFFSET 4.983000 -0.000000 -0.000000
							CHANNELS 3 Zrotation Yrotation Xrotation
							JOINT LeftHand
							{
								OFFSET 3.483560 -0.000000 -0.000000
								CHANNELS 3 Zrotation Yrotation Xrotation
								JOINT LeftFingerBase
								{
									OFFSET 0.000000 0.000000 0.000000
									CHANNELS 3 Zrotation Yrotation Xrotation
									JOINT LeftHandIndex1
									{
										OFFSET 0.715260 -0.000000 -0.000000
										CHANNELS 3 Zrotation Yrotation Xrotation
										End Site
										{
											OFFSET 0.000000 0.000000 0.000000
										}
									}
								}
								JOINT LThumb
								{
									OFFSET 0.000000 0.000000 0.000000
									CHANNELS 3 Zrotation Yrotation Xrotation
									End Site
									{
										OFFSET 0.000000 0.000000 0.000000
									}
								}
							}
						}
					}
				}
				JOINT RightShoulder
				{
					OFFSET 0.000000 0.000000 0.000000
					CHANNELS 3 Zrotation Yrotation Xrotation
					JOINT RightArm
					{
						OFFSET -3.136600 1.374050 -0.404650
						CHANNELS 3 Zrotation Yrotation Xrotation
						JOINT RightForeArm
						{
							OFFSET -5.241900 -0.000000 -0.000000
							CHANNELS 3 Zrotation Yrotation Xrotation
							JOINT RightHand
							{
								OFFSET -3.444170 -0.000000 -0.000000
								CHANNELS 3 Zrotation Yrotation Xrotation
								JOINT RightFingerBase
								{
									OFFSET 0.000000 0.000000 0.000000
									CHANNELS 3 Zrotation Yrotation Xrotation
									JOINT RightHandIndex1
									{
										OFFSET -0.622530 -0.000000 -0.000000
										CHANNELS 3 Zrotation Yrotation Xrotation
										End Site
										{
											OFFSET 0.000000 0.000000 0.000000
										}
									}
								}
								JOINT RThumb
								{
									OFFSET 0.000000 0.000000 0.000000
									CHANNELS 3 Zrotation Yrotation Xrotation
									End Site
									{
										OFFSET 0.000000 0.000000 0.000000
									}
								}
							}
						}
					}
				}
			}
		}
	}
}
}
MOTION
Frames: 14
Frame Time: 0.008333
-1.341843 16.360803 -1.957914 -149.882485 72.411886 -140.837295 4.150752 -0.695881 -0.561015 -0.189650 -1.041243 -3.205210 -7.298566 -1.112306 0.221509 9.885784 -4.087301 -6.446052 -3.801135 -0.307990 0.326623 0.000000 0.000000 0.000000 -7.089213 8.520450 1.906047 -69.577435 18.419388 16.923651 -3.006298 -22.475332 -0.010660 -3.651804 7.526218 -0.240594 -0.038433 -0.083022 -0.000000 0.000000 0.000000 0.000000 0.000000 0.000000 0.000000 16.297716 -0.315919 1.431768 53.439588 13.254685 3.963126 3.006539 32.837370 0.008784 -3.135115 6.356459 -0.184188 0.129111 -0.131058 0.000000 0.000000 0.000000 0.000000 0.000000 0.000000 0.000000 
-1.158778 16.332342 -2.037642 -152.413849 71.599585 -142.932774 3.818487 -0.773684 -0.934766 -0.251016 -1.117433 -3.255984 -7.316320 -1.189978 0.285029 9.950395 -4.366528 -6.639392 -3.811378 -0.307287 0.274920 0.000000 0.000000 0.000000 -7.079491 8.642546 1.877342 -68.703025 17.447635 17.448579 -3.023058 -22.871196 -0.010400 -3.448621 7.352831 -0.221561 -0.041514 -0.079909 -0.000000 0.000000 0.000000 0.000000 0.000000 0.000000 0.000000 16.447736 -0.629219 1.446428 53.387916 12.269781 3.333683 3.041778 32.158183 0.008724 -3.636954 6.489480 -0.217186 0.134079 -0.127633 0.000000 0.000000 0.000000 0.000000 0.000000 0.000000 0.000000 
-0.980319 16.312463 -2.118786 -154.857546 70.752563 -144.925536 3.488902 -0.843884 -1.276423 -0.311461 -1.184011 -3.301868 -7.328168 -1.258321 0.342620 9.974155 -4.620242 -6.832672 -3.821799 -0.306468 0.222182 0.000000 0.000000 0.000000 -7.123937 8.759079 1.856296 -67.821431 16.279987 17.811919 -3.036918 -23.208276 -0.009762 -3.052496 7.103725 -0.188917 -0.044723 -0.075628 -0.000000 0.000000 0.000000 0.000000 0.000000 0.000000 0.000000 16.546012 -0.915586 1.459222 53.442467 11.193290 2.612485 3.077931 31.387782 0.008637 -4.179536 6.617768 -0.253589 0.138902 -0.124051 0.000000 0.000000 0.000000 0.000000 0.000000 0.000000 0.000000 
-0.806425 16.301630 -2.202860 -157.128544 69.868279 -146.744279 3.194441 -0.902086 -1.587293 -0.364920 -1.238760 -3.343828 -7.333392 -1.315077 0.392485 9.948556 -4.799854 -7.010795 -3.833053 -0.305718 0.172542 0.000000 0.000000 0.000000 -7.219356 8.892307 1.845185 -66.966604 14.908853 18.013477 -3.047988 -23.458920 -0.008803 -2.465058 6.790196 -0.144968 -0.047996 -0.070083 -0.000000 0.000000 0.000000 0.000000 0.000000 0.000000 0.000000 16.576858 -1.124829 1.467046 53.608699 9.973912 1.747085 3.116857 30.537252 0.008576 -4.687600 6.722602 -0.288097 0.142942 -0.120121 0.000000 0.000000 0.000000 0.000000 0.000000 0.000000 0.000000 
-0.636660 16.300063 -2.290723 -159.193962 68.945130 -148.367078 2.948847 -0.946507 -1.869849 -0.409238 -1.281052 -3.379862 -7.335290 -1.358815 0.441221 9.887570 -5.031992 -7.183167 -3.845084 -0.305049 0.124096 0.000000 0.000000 0.000000 -7.387964 8.934456 1.827074 -66.160699 13.488735 17.889702 -3.054878 -23.724284 -0.007635 -1.707528 6.438917 -0.094116 -0.050867 -0.064099 -0.000000 0.000000 0.000000 0.000000 0.000000 0.000000 0.000000 16.583740 -1.403279 1.481394 53.820163 8.817822 0.979783 3.167951 29.492621 0.008602 -5.189481 6.794278 -0.321511 0.147068 -0.115353 0.000000 0.000000 0.000000 0.000000 0.000000 0.000000 0.000000 
-0.470818 16.307123 -2.383663 -160.990936 67.974253 -149.740093 2.785541 -0.975605 -2.134906 -0.437624 -1.312221 -3.413785 -7.331148 -1.391205 0.484942 9.778607 -5.187120 -7.325388 -3.858136 -0.304668 0.083412 0.000000 0.000000 0.000000 -7.597235 8.983223 1.813076 -65.432751 11.934673 17.587570 -3.057825 -23.929826 -0.006348 -0.805286 6.043624 -0.040061 -0.053428 -0.057239 -0.000000 0.000000 0.000000 0.000000 0.000000 0.000000 0.000000 16.528014 -1.608960 1.490107 54.114030 7.546479 0.108202 3.229045 28.345281 0.008753 -5.549834 6.809096 -0.344033 0.150025 -0.109909 0.000000 0.000000 0.000000 0.000000 0.000000 0.000000 0.000000 
-0.308306 16.321962 -2.482113 -162.513334 66.946560 -150.861799 2.716188 -0.990538 -2.391695 -0.447924 -1.334902 -3.446270 -7.322488 -1.414526 0.526827 9.631830 -5.310108 -7.438087 -3.871880 -0.304611 0.050811 0.000000 0.000000 0.000000 -7.842938 9.002601 1.796049 -64.796583 10.322119 17.088759 -3.055781 -24.130792 -0.005068 0.199095 5.614560 0.012693 -0.055457 -0.049952 -0.000000 0.000000 0.000000 0.000000 0.000000 0.000000 0.000000 16.430391 -1.794829 1.495962 54.459473 6.231545 -0.784375 3.304953 27.068629 0.009041 -5.746661 6.753853 -0.352961 0.152109 -0.103689 0.000000 0.000000 0.000000 0.000000 0.000000 0.000000 0.000000 
-0.148580 16.343380 -2.586392 -163.760732 65.847206 -151.733336 2.749021 -0.994240 -2.651503 -0.438528 -1.353419 -3.478867 -7.310313 -1.432936 0.568977 9.455886 -5.411469 -7.520005 -3.885687 -0.304879 0.026995 0.000000 0.000000 0.000000 -8.111038 8.990646 1.773559 -64.260484 8.684304 16.440318 -3.048120 -24.357681 -0.003904 1.256455 5.156595 0.059744 -0.056921 -0.042464 -0.000000 0.000000 0.000000 0.000000 0.000000 0.000000 0.000000 16.300992 -1.974087 1.497808 54.842376 4.888642 -1.682076 3.397906 25.673425 0.009447 -5.746290 6.616181 -0.345495 0.153390 -0.096749 0.000000 0.000000 0.000000 0.000000 0.000000 0.000000 0.000000 
0.008929 16.369977 -2.696268 -164.756461 64.659510 -152.374583 2.883642 -0.991365 -2.925791 -0.409435 -1.373274 -3.513127 -7.295686 -1.451845 0.613917 9.261573 -5.493448 -7.572134 -3.898962 -0.305437 0.011931 0.000000 0.000000 0.000000 -8.383225 8.960736 1.745061 -63.826356 7.029836 15.722411 -3.035261 -24.630107 -0.002945 2.313631 4.675825 0.097789 -0.057988 -0.034874 -0.000000 0.000000 0.000000 0.000000 0.000000 0.000000 0.000000 16.150716 -2.149558 1.493062 55.255888 3.515180 -2.595391 3.508616 24.189338 0.009906 -5.522373 6.385953 -0.320634 0.153911 -0.089212 0.000000 0.000000 0.000000 0.000000 0.000000 0.000000 0.000000 
0.164756 16.400287 -2.811352 -165.533773 63.363334 -152.811527 3.111067 -0.987562 -3.226113 -0.362360 -1.400397 -3.551103 -7.280949 -1.477106 0.661172 9.063728 -5.600151 -7.599306 -3.910511 -0.306208 0.004746 0.000000 0.000000 0.000000 -8.648354 8.868056 1.707372 -63.489590 5.435109 14.954429 -3.016625 -25.013684 -0.002245 3.313125 4.187059 0.124333 -0.058755 -0.027468 -0.000000 0.000000 0.000000 0.000000 0.000000 0.000000 0.000000 15.997889 -2.370332 1.484641 55.681401 2.162487 -3.458026 3.637580 22.619294 0.010331 -5.095331 6.060296 -0.281077 0.154045 -0.081163 0.000000 0.000000 0.000000 0.000000 0.000000 0.000000 0.000000 
0.319345 16.432926 -2.930632 -166.150455 61.941308 -153.093266 3.410558 -0.990309 -3.558935 -0.301069 -1.441458 -3.593543 -7.267795 -1.515454 0.713289 8.875824 -5.715611 -7.606583 -3.920167 -0.307104 0.003951 0.000000 0.000000 0.000000 -8.884943 8.752957 1.664030 -63.240227 3.859428 14.259297 -2.995289 -25.495877 -0.001853 4.206633 3.702840 0.138972 -0.059723 -0.020004 -0.000000 0.000000 0.000000 0.000000 0.000000 0.000000 0.000000 15.853781 -2.616800 1.468355 56.127088 0.796878 -4.328039 3.781610 21.021976 0.010604 -4.460269 5.636026 -0.229523 0.153679 -0.072794 0.000000 0.000000 0.000000 0.000000 0.000000 0.000000 0.000000 
0.473071 16.466696 -3.052963 -166.667988 60.379990 -153.271818 3.753160 -1.007265 -3.926665 -0.230897 -1.502432 -3.641086 -7.258978 -1.572975 0.769199 8.713414 -5.860797 -7.601151 -3.927605 -0.308042 0.007643 0.000000 0.000000 0.000000 -9.079629 8.596985 1.616266 -63.063988 2.329537 13.683233 -2.973289 -26.104775 -0.001775 4.950032 3.243237 0.142811 -0.061215 -0.012415 -0.000000 0.000000 0.000000 0.000000 0.000000 0.000000 0.000000 15.736062 -2.910540 1.446128 56.589632 -0.562142 -5.186035 3.937086 19.423613 0.010616 -3.656922 5.118715 -0.171973 0.152974 -0.064246 0.000000 0.000000 0.000000 0.000000 0.000000 0.000000 0.000000 
0.626238 16.500648 -3.176880 -167.153039 58.673473 -153.407101 4.103067 -1.045683 -4.324081 -0.158412 -1.587838 -3.693089 -7.257057 -1.654386 0.827528 8.590268 -6.044396 -7.590384 -3.933047 -0.308950 0.013668 0.000000 0.000000 0.000000 -9.220219 8.394727 1.567196 -62.943687 0.846450 13.278474 -2.953368 -26.846623 -0.002003 5.511312 2.828766 0.138353 -0.063533 -0.004487 -0.000000 0.000000 0.000000 0.000000 0.000000 0.000000 0.000000 15.660527 -3.258435 1.419658 57.072655 -1.910146 -6.034488 4.098522 17.858919 0.010275 -2.730744 4.518405 -0.114623 0.151979 -0.055701 0.000000 0.000000 0.000000 0.000000 0.000000 0.000000 0.000000 
0.778942 16.534094 -3.301168 -167.658683 56.825754 -153.550591 4.423338 -1.111826 -4.737253 -0.090443 -1.700453 -3.746796 -7.264608 -1.762659 0.889003 8.517518 -6.263042 -7.583673 -3.937102 -0.309728 0.019093 0.000000 0.000000 0.000000 -9.299492 8.168974 1.520949 -62.859695 -0.628950 13.107181 -2.939299 -27.698255 -0.002511 5.874490 2.474745 0.128602 -0.066960 0.004095 -0.000000 0.000000 0.000000 0.000000 0.000000 0.000000 0.000000 15.641218 -3.652818 1.389413 57.583183 -3.250152 -6.894911 4.259384 16.365243 0.009532 -1.729942 3.849604 -0.063579 0.150691 -0.047365 0.000000 0.000000 0.000000 0.000000 0.000000 0.000000 0.000000 
